<svg width="97" height="28" viewBox="0 0 97 28" fill="none" xmlns="http://www.w3.org/2000/svg">
<path d="M20.419 12.371C20.04 12.7523 19.7498 13.2125 19.569 13.7187C19.3882 14.225 19.3213 14.7649 19.373 15.3L19.355 15.282C19.4082 15.9119 19.3233 16.5457 19.1062 17.1394C18.8891 17.733 18.545 18.2721 18.0981 18.7191C17.6511 19.166 17.112 19.5101 16.5184 19.7272C15.9247 19.9443 15.2909 20.0292 14.661 19.976L14.679 19.994C13.9256 19.9239 13.1689 20.0878 12.5121 20.4635C11.8552 20.8392 11.3303 21.4083 11.0087 22.0933C10.6872 22.7783 10.5848 23.5458 10.7154 24.2911C10.846 25.0364 11.2033 25.7233 11.7386 26.2581C12.2739 26.7929 12.9611 27.1496 13.7065 27.2795C14.452 27.4095 15.2194 27.3064 15.904 26.9842C16.5887 26.6621 17.1574 26.1366 17.5325 25.4794C17.9076 24.8222 18.0708 24.0654 18 23.312L18.019 23.33C17.9659 22.7002 18.0508 22.0663 18.2679 21.4727C18.485 20.879 18.829 20.3399 19.276 19.8929C19.7229 19.446 20.262 19.102 20.8557 18.8849C21.4493 18.6678 22.0832 18.5828 22.713 18.636L22.694 18.618C23.3095 18.6734 23.9289 18.5725 24.495 18.3246C25.0611 18.0768 25.5554 17.6902 25.9322 17.2004C26.3091 16.7107 26.5562 16.1337 26.6507 15.5231C26.7452 14.9124 26.684 14.2878 26.4727 13.7071C26.2615 13.1263 25.9072 12.6083 25.4425 12.201C24.9778 11.7937 24.4177 11.5104 23.8143 11.3771C23.2109 11.2439 22.5837 11.2651 21.9907 11.4389C21.3977 11.6126 20.8581 11.9332 20.422 12.371H20.419Z" fill="url(#paint0_linear)"/>
<path d="M13.0419 17.636L13.0229 17.618C13.5582 17.6719 14.0989 17.6062 14.6057 17.4256C15.1125 17.245 15.5729 16.9541 15.9535 16.5738C16.3341 16.1935 16.6254 15.7333 16.8064 15.2266C16.9873 14.7199 17.0534 14.1794 16.9999 13.644L17.0189 13.662C16.9657 13.0321 17.0507 12.3983 17.2678 11.8046C17.4849 11.211 17.8289 10.6719 18.2758 10.2249C18.7228 9.77798 19.2619 9.43395 19.8555 9.21685C20.4492 8.99976 21.0831 8.91483 21.7129 8.968L21.6939 8.95C22.4474 9.02076 23.2044 8.85736 23.8616 8.4821C24.5188 8.10684 25.0442 7.53797 25.3662 6.8531C25.6882 6.16824 25.7912 5.40071 25.6609 4.6552C25.5307 3.90969 25.1737 3.22251 24.6385 2.68737C24.1034 2.15224 23.4162 1.7952 22.6707 1.66498C21.9252 1.53475 21.1577 1.63766 20.4728 1.95968C19.7879 2.28169 19.2191 2.80714 18.8438 3.46435C18.4685 4.12155 18.3051 4.87852 18.3759 5.632L18.3579 5.613C18.4113 6.24289 18.3264 6.87683 18.1094 7.47055C17.8924 8.06427 17.5484 8.60346 17.1014 9.05045C16.6544 9.49745 16.1152 9.84148 15.5215 10.0585C14.9277 10.2755 14.2938 10.3603 13.6639 10.307L13.6819 10.326C13.1466 10.2721 12.606 10.3378 12.0991 10.5184C11.5923 10.6989 11.1319 10.9899 10.7513 11.3702C10.3708 11.7505 10.0794 12.2107 9.89846 12.7174C9.71748 13.2241 9.65137 13.7646 9.70491 14.3L9.68691 14.282C9.7399 14.9118 9.65485 15.5456 9.43769 16.1392C9.22054 16.7327 8.8765 17.2718 8.42958 17.7187C7.98267 18.1656 7.44363 18.5096 6.85007 18.7268C6.25651 18.9439 5.62272 19.029 4.99291 18.976L5.01091 18.994C4.25742 18.9232 3.50046 19.0866 2.84325 19.4619C2.18605 19.8372 1.6606 20.406 1.33858 21.0909C1.01657 21.7758 0.913652 22.5433 1.04388 23.2888C1.17411 24.0343 1.53114 24.7215 2.06628 25.2566C2.60142 25.7918 3.2886 26.1488 4.03411 26.279C4.77961 26.4093 5.54715 26.3063 6.23201 25.9843C6.91688 25.6623 7.48574 25.1369 7.86101 24.4797C8.23627 23.8224 8.39967 23.0655 8.32891 22.312L8.34791 22.33C8.29474 21.7001 8.37966 21.0663 8.59676 20.4726C8.81385 19.879 9.15788 19.3399 9.60484 18.8929C10.0518 18.446 10.5909 18.1019 11.1845 17.8849C11.7782 17.6678 12.4121 17.5828 13.0419 17.636Z" fill="url(#paint1_linear)"/>
<path d="M6.33996 15.6289C6.71899 15.2477 7.00917 14.7875 7.18981 14.2812C7.37045 13.7749 7.43709 13.235 7.38496 12.6999L7.40396 12.7179C7.35076 12.0879 7.43572 11.4539 7.65293 10.8601C7.87014 10.2663 8.21436 9.72704 8.66154 9.28005C9.10872 8.83306 9.64809 8.48907 10.242 8.27212C10.8359 8.05516 11.47 7.97046 12.1 8.02394L12.081 8.00594C12.8342 8.07651 13.5908 7.91302 14.2477 7.53778C14.9046 7.16255 15.4298 6.59382 15.7516 5.90917C16.0735 5.22451 16.1763 4.45726 16.0461 3.71203C15.9158 2.9668 15.5589 2.27988 15.024 1.74494C14.489 1.21 13.8021 0.853081 13.0569 0.722857C12.3116 0.592633 11.5444 0.695444 10.8597 1.01727C10.1751 1.33909 9.60636 1.86426 9.23112 2.52116C8.85588 3.17806 8.6924 3.93472 8.76297 4.68794L8.74497 4.66994C8.79813 5.29979 8.71321 5.93366 8.49611 6.5273C8.27902 7.12094 7.93499 7.66005 7.48803 8.10701C7.04108 8.55396 6.50196 8.89799 5.90832 9.11509C5.31468 9.33218 4.68082 9.41711 4.05097 9.36394L4.06896 9.38194C3.45354 9.32675 2.83413 9.4278 2.26815 9.67572C1.70217 9.92364 1.20792 10.3104 0.831214 10.8002C0.454503 11.29 0.207516 11.8669 0.113141 12.4776C0.0187655 13.0882 0.0800546 13.7128 0.291329 14.2935C0.502604 14.8741 0.857029 15.3921 1.32176 15.7993C1.78649 16.2065 2.34649 16.4898 2.94987 16.623C3.55324 16.7562 4.18047 16.7349 4.77343 16.5611C5.3664 16.3874 5.9059 16.0667 6.34196 15.6289H6.33996Z" fill="url(#paint2_linear)"/>
<path d="M42.592 1.152V18H38.488V1.152H42.592ZM64.6461 1.152V18H60.5421V7.896L56.7741 18H53.4621L49.6701 7.872V18H45.5661V1.152H50.4141L55.1421 12.816L59.8221 1.152H64.6461ZM80.4374 6.576C80.4374 7.552 80.2134 8.448 79.7654 9.264C79.3174 10.064 78.6294 10.712 77.7014 11.208C76.7734 11.704 75.6214 11.952 74.2454 11.952H71.7014V18H67.5974V1.152H74.2454C75.5894 1.152 76.7254 1.384 77.6534 1.848C78.5814 2.312 79.2774 2.952 79.7414 3.768C80.2054 4.584 80.4374 5.52 80.4374 6.576ZM73.9334 8.688C74.7174 8.688 75.3014 8.504 75.6854 8.136C76.0694 7.768 76.2614 7.248 76.2614 6.576C76.2614 5.904 76.0694 5.384 75.6854 5.016C75.3014 4.648 74.7174 4.464 73.9334 4.464H71.7014V8.688H73.9334ZM88.6699 18.168C87.4379 18.168 86.3339 17.968 85.3579 17.568C84.3819 17.168 83.5979 16.576 83.0059 15.792C82.4299 15.008 82.1259 14.064 82.0939 12.96H86.4619C86.5259 13.584 86.7419 14.064 87.1099 14.4C87.4779 14.72 87.9579 14.88 88.5499 14.88C89.1579 14.88 89.6379 14.744 89.9899 14.472C90.3419 14.184 90.5179 13.792 90.5179 13.296C90.5179 12.88 90.3739 12.536 90.0859 12.264C89.8139 11.992 89.4699 11.768 89.0539 11.592C88.6539 11.416 88.0779 11.216 87.3259 10.992C86.2379 10.656 85.3499 10.32 84.6619 9.984C83.9739 9.648 83.3819 9.152 82.8859 8.496C82.3899 7.84 82.1419 6.984 82.1419 5.928C82.1419 4.36 82.7099 3.136 83.8459 2.256C84.9819 1.36 86.4619 0.912 88.2859 0.912C90.1419 0.912 91.6379 1.36 92.7739 2.256C93.9099 3.136 94.5179 4.368 94.5979 5.952H90.1579C90.1259 5.408 89.9259 4.984 89.5579 4.68C89.1899 4.36 88.7179 4.2 88.1419 4.2C87.6459 4.2 87.2459 4.336 86.9419 4.608C86.6379 4.864 86.4859 5.24 86.4859 5.736C86.4859 6.28 86.7419 6.704 87.2539 7.008C87.7659 7.312 88.5659 7.64 89.6539 7.992C90.7419 8.36 91.6219 8.712 92.2939 9.048C92.9819 9.384 93.5739 9.872 94.0699 10.512C94.5659 11.152 94.8139 11.976 94.8139 12.984C94.8139 13.944 94.5659 14.816 94.0699 15.6C93.5899 16.384 92.8859 17.008 91.9579 17.472C91.0299 17.936 89.9339 18.168 88.6699 18.168Z" fill="white"/>
<path d="M40.8922 25.0328H38.8486L38.521 26H37.1248L39.106 20.5244H40.6504L42.6316 26H41.2198L40.8922 25.0328ZM40.549 24.0032L39.8704 21.9986L39.1996 24.0032H40.549ZM44.779 20.5244C45.3562 20.5244 45.8606 20.6388 46.2922 20.8676C46.7238 21.0964 47.0566 21.4188 47.2906 21.8348C47.5298 22.2456 47.6494 22.7214 47.6494 23.2622C47.6494 23.7978 47.5298 24.2736 47.2906 24.6896C47.0566 25.1056 46.7212 25.428 46.2844 25.6568C45.8528 25.8856 45.351 26 44.779 26H42.7276V20.5244H44.779ZM44.6932 24.8456C45.1976 24.8456 45.5902 24.7078 45.871 24.4322C46.1518 24.1566 46.2922 23.7666 46.2922 23.2622C46.2922 22.7578 46.1518 22.3652 45.871 22.0844C45.5902 21.8036 45.1976 21.6632 44.6932 21.6632H44.0614V24.8456H44.6932ZM54.0888 20.5244V26H52.755V22.7162L51.5304 26H50.454L49.2216 22.7084V26H47.8878V20.5244H49.4634L51 24.3152L52.521 20.5244H54.0888ZM55.8747 20.5244V26H54.5409V20.5244H55.8747ZM61.2327 26H59.8989L57.6681 22.6226V26H56.3343V20.5244H57.6681L59.8989 23.9174V20.5244H61.2327V26ZM63.0263 20.5244V26H61.6925V20.5244H63.0263ZM65.4671 26.0546C65.0667 26.0546 64.7079 25.9896 64.3907 25.8596C64.0735 25.7296 63.8187 25.5372 63.6263 25.2824C63.4391 25.0276 63.3403 24.7208 63.3299 24.362H64.7495C64.7703 24.5648 64.8405 24.7208 64.9601 24.83C65.0797 24.934 65.2357 24.986 65.4281 24.986C65.6257 24.986 65.7817 24.9418 65.8961 24.8534C66.0105 24.7598 66.0677 24.6324 66.0677 24.4712C66.0677 24.336 66.0209 24.2242 65.9273 24.1358C65.8389 24.0474 65.7271 23.9746 65.5919 23.9174C65.4619 23.8602 65.2747 23.7952 65.0303 23.7224C64.6767 23.6132 64.3881 23.504 64.1645 23.3948C63.9409 23.2856 63.7485 23.1244 63.5873 22.9112C63.4261 22.698 63.3455 22.4198 63.3455 22.0766C63.3455 21.567 63.5301 21.1692 63.8993 20.8832C64.2685 20.592 64.7495 20.4464 65.3423 20.4464C65.9455 20.4464 66.4317 20.592 66.8009 20.8832C67.1701 21.1692 67.3677 21.5696 67.3937 22.0844H65.9507C65.9403 21.9076 65.8753 21.7698 65.7557 21.671C65.6361 21.567 65.4827 21.515 65.2955 21.515C65.1343 21.515 65.0043 21.5592 64.9055 21.6476C64.8067 21.7308 64.7573 21.853 64.7573 22.0142C64.7573 22.191 64.8405 22.3288 65.0069 22.4276C65.1733 22.5264 65.4333 22.633 65.7869 22.7474C66.1405 22.867 66.4265 22.9814 66.6449 23.0906C66.8685 23.1998 67.0609 23.3584 67.2221 23.5664C67.3833 23.7744 67.4639 24.0422 67.4639 24.3698C67.4639 24.6818 67.3833 24.9652 67.2221 25.22C67.0661 25.4748 66.8373 25.6776 66.5357 25.8284C66.2341 25.9792 65.8779 26.0546 65.4671 26.0546ZM71.7168 20.5244V21.593H70.266V26H68.9322V21.593H67.4814V20.5244H71.7168ZM74.6716 26L73.5328 23.933H73.213V26H71.8792V20.5244H74.1178C74.5494 20.5244 74.916 20.5998 75.2176 20.7506C75.5244 20.9014 75.7532 21.1094 75.904 21.3746C76.0548 21.6346 76.1302 21.9258 76.1302 22.2482C76.1302 22.6122 76.0262 22.9372 75.8182 23.2232C75.6154 23.5092 75.3138 23.712 74.9134 23.8316L76.177 26H74.6716ZM73.213 22.9892H74.0398C74.2842 22.9892 74.4662 22.9294 74.5858 22.8098C74.7106 22.6902 74.773 22.5212 74.773 22.3028C74.773 22.0948 74.7106 21.931 74.5858 21.8114C74.4662 21.6918 74.2842 21.632 74.0398 21.632H73.213V22.9892ZM79.869 25.0328H77.8254L77.4978 26H76.1016L78.0828 20.5244H79.6272L81.6084 26H80.1966L79.869 25.0328ZM79.5258 24.0032L78.8472 21.9986L78.1764 24.0032H79.5258ZM85.6434 20.5244V21.593H84.1926V26H82.8588V21.593H81.408V20.5244H85.6434ZM88.3954 26.0546C87.8806 26.0546 87.4074 25.935 86.9758 25.6958C86.5494 25.4566 86.2088 25.1238 85.954 24.6974C85.7044 24.2658 85.5796 23.7822 85.5796 23.2466C85.5796 22.711 85.7044 22.23 85.954 21.8036C86.2088 21.3772 86.5494 21.0444 86.9758 20.8052C87.4074 20.566 87.8806 20.4464 88.3954 20.4464C88.9102 20.4464 89.3808 20.566 89.8072 20.8052C90.2388 21.0444 90.5768 21.3772 90.8212 21.8036C91.0708 22.23 91.1956 22.711 91.1956 23.2466C91.1956 23.7822 91.0708 24.2658 90.8212 24.6974C90.5716 25.1238 90.2336 25.4566 89.8072 25.6958C89.3808 25.935 88.9102 26.0546 88.3954 26.0546ZM88.3954 24.8378C88.8322 24.8378 89.1806 24.6922 89.4406 24.401C89.7058 24.1098 89.8384 23.725 89.8384 23.2466C89.8384 22.763 89.7058 22.3782 89.4406 22.0922C89.1806 21.801 88.8322 21.6554 88.3954 21.6554C87.9534 21.6554 87.5998 21.7984 87.3346 22.0844C87.0746 22.3704 86.9446 22.7578 86.9446 23.2466C86.9446 23.7302 87.0746 24.1176 87.3346 24.4088C87.5998 24.6948 87.9534 24.8378 88.3954 24.8378ZM94.2231 26L93.0843 23.933H92.7645V26H91.4307V20.5244H93.6693C94.1009 20.5244 94.4675 20.5998 94.7691 20.7506C95.0759 20.9014 95.3047 21.1094 95.4555 21.3746C95.6063 21.6346 95.6817 21.9258 95.6817 22.2482C95.6817 22.6122 95.5777 22.9372 95.3697 23.2232C95.1669 23.5092 94.8653 23.712 94.4649 23.8316L95.7285 26H94.2231ZM92.7645 22.9892H93.5913C93.8357 22.9892 94.0177 22.9294 94.1373 22.8098C94.2621 22.6902 94.3245 22.5212 94.3245 22.3028C94.3245 22.0948 94.2621 21.931 94.1373 21.8114C94.0177 21.6918 93.8357 21.632 93.5913 21.632H92.7645V22.9892Z" fill="white"/>
<defs>
<linearGradient id="paint0_linear" x1="10.6602" y1="11.2908" x2="28.4014" y2="14.5147" gradientUnits="userSpaceOnUse">
<stop stop-color="#57FFF5"/>
<stop offset="1" stop-color="#0094FF"/>
</linearGradient>
<linearGradient id="paint1_linear" x1="0.989014" y1="1.61011" x2="28.3479" y2="6.58537" gradientUnits="userSpaceOnUse">
<stop stop-color="#57FFF5"/>
<stop offset="1" stop-color="#0094FF"/>
</linearGradient>
<linearGradient id="paint2_linear" x1="0.0700684" y1="0.667969" x2="17.8083" y2="3.8912" gradientUnits="userSpaceOnUse">
<stop stop-color="#57FFF5"/>
<stop offset="1" stop-color="#0094FF"/>
</linearGradient>
</defs>
</svg>
