<svg width="96" height="36" viewBox="0 0 96 36" fill="none" xmlns="http://www.w3.org/2000/svg">
<path d="M20.419 16.371C20.04 16.7523 19.7498 17.2125 19.569 17.7187C19.3882 18.225 19.3213 18.7649 19.373 19.3L19.355 19.282C19.4082 19.9119 19.3233 20.5457 19.1062 21.1394C18.8891 21.733 18.545 22.2721 18.0981 22.7191C17.6511 23.166 17.112 23.5101 16.5184 23.7272C15.9247 23.9443 15.2909 24.0292 14.661 23.976L14.679 23.994C13.9256 23.9239 13.1689 24.0878 12.5121 24.4635C11.8552 24.8392 11.3303 25.4083 11.0087 26.0933C10.6872 26.7783 10.5848 27.5458 10.7154 28.2911C10.846 29.0364 11.2033 29.7233 11.7386 30.2581C12.2739 30.7929 12.9611 31.1496 13.7065 31.2795C14.452 31.4095 15.2194 31.3064 15.904 30.9842C16.5887 30.6621 17.1574 30.1366 17.5325 29.4794C17.9076 28.8222 18.0708 28.0654 18 27.312L18.019 27.33C17.9659 26.7002 18.0508 26.0663 18.2679 25.4727C18.485 24.879 18.829 24.3399 19.276 23.8929C19.7229 23.446 20.262 23.102 20.8557 22.8849C21.4493 22.6678 22.0832 22.5828 22.713 22.636L22.694 22.618C23.3095 22.6734 23.9289 22.5725 24.495 22.3246C25.0611 22.0768 25.5554 21.6902 25.9322 21.2004C26.3091 20.7107 26.5562 20.1337 26.6507 19.5231C26.7452 18.9124 26.684 18.2878 26.4727 17.7071C26.2615 17.1263 25.9072 16.6083 25.4425 16.201C24.9778 15.7937 24.4177 15.5104 23.8143 15.3771C23.2109 15.2439 22.5837 15.2651 21.9907 15.4389C21.3977 15.6126 20.8581 15.9332 20.422 16.371H20.419Z" fill="#394149"/>
<path d="M13.0419 21.636L13.0229 21.618C13.5582 21.6719 14.0989 21.6062 14.6057 21.4256C15.1125 21.245 15.5729 20.9541 15.9535 20.5738C16.3341 20.1935 16.6254 19.7333 16.8064 19.2266C16.9873 18.7199 17.0534 18.1794 16.9999 17.644L17.0189 17.662C16.9657 17.0321 17.0507 16.3983 17.2678 15.8046C17.4849 15.211 17.8289 14.6719 18.2758 14.2249C18.7228 13.778 19.2619 13.4339 19.8555 13.2169C20.4492 12.9998 21.0831 12.9148 21.7129 12.968L21.6939 12.95C22.4474 13.0208 23.2044 12.8574 23.8616 12.4821C24.5188 12.1068 25.0442 11.538 25.3662 10.8531C25.6882 10.1682 25.7912 9.40071 25.6609 8.6552C25.5307 7.90969 25.1737 7.22251 24.6385 6.68737C24.1034 6.15224 23.4162 5.7952 22.6707 5.66498C21.9252 5.53475 21.1577 5.63766 20.4728 5.95968C19.7879 6.28169 19.2191 6.80714 18.8438 7.46435C18.4685 8.12155 18.3051 8.87852 18.3759 9.632L18.3579 9.613C18.4113 10.2429 18.3264 10.8768 18.1094 11.4706C17.8924 12.0643 17.5484 12.6035 17.1014 13.0505C16.6544 13.4974 16.1152 13.8415 15.5215 14.0585C14.9277 14.2755 14.2938 14.3603 13.6639 14.307L13.6819 14.326C13.1466 14.2721 12.606 14.3378 12.0991 14.5184C11.5923 14.6989 11.1319 14.9899 10.7513 15.3702C10.3708 15.7505 10.0794 16.2107 9.89846 16.7174C9.71748 17.2241 9.65137 17.7646 9.70491 18.3L9.68691 18.282C9.7399 18.9118 9.65485 19.5456 9.43769 20.1392C9.22054 20.7327 8.8765 21.2718 8.42958 21.7187C7.98267 22.1656 7.44363 22.5096 6.85007 22.7268C6.25651 22.9439 5.62272 23.029 4.99291 22.976L5.01091 22.994C4.25742 22.9232 3.50046 23.0866 2.84325 23.4619C2.18605 23.8372 1.6606 24.406 1.33858 25.0909C1.01657 25.7758 0.913652 26.5433 1.04388 27.2888C1.17411 28.0343 1.53114 28.7215 2.06628 29.2566C2.60142 29.7918 3.2886 30.1488 4.03411 30.279C4.77961 30.4093 5.54715 30.3063 6.23201 29.9843C6.91688 29.6623 7.48574 29.1369 7.86101 28.4797C8.23627 27.8224 8.39967 27.0655 8.32891 26.312L8.34791 26.33C8.29474 25.7001 8.37966 25.0663 8.59676 24.4726C8.81385 23.879 9.15788 23.3399 9.60484 22.8929C10.0518 22.446 10.5909 22.1019 11.1845 21.8849C11.7782 21.6678 12.4121 21.5828 13.0419 21.636Z" fill="#394149"/>
<path d="M6.33996 19.629C6.71899 19.2478 7.00917 18.7876 7.18981 18.2813C7.37045 17.775 7.43709 17.235 7.38496 16.7L7.40396 16.718C7.35076 16.088 7.43572 15.4539 7.65293 14.8601C7.87014 14.2663 8.21436 13.7271 8.66154 13.2801C9.10872 12.8331 9.64809 12.4891 10.242 12.2722C10.8359 12.0552 11.47 11.9705 12.1 12.024L12.081 12.006C12.8342 12.0766 13.5908 11.9131 14.2477 11.5378C14.9046 11.1626 15.4298 10.5939 15.7516 9.90923C16.0735 9.22457 16.1763 8.45732 16.0461 7.71209C15.9158 6.96686 15.5589 6.27994 15.024 5.745C14.489 5.21006 13.8021 4.85314 13.0569 4.72292C12.3116 4.59269 11.5444 4.69551 10.8597 5.01733C10.1751 5.33915 9.60636 5.86432 9.23112 6.52122C8.85588 7.17812 8.6924 7.93478 8.76297 8.688L8.74497 8.67C8.79813 9.29985 8.71321 9.93372 8.49611 10.5274C8.27902 11.121 7.93499 11.6601 7.48803 12.1071C7.04108 12.554 6.50196 12.8981 5.90832 13.1151C5.31468 13.3322 4.68082 13.4172 4.05097 13.364L4.06896 13.382C3.45354 13.3268 2.83413 13.4279 2.26815 13.6758C1.70217 13.9237 1.20792 14.3105 0.831214 14.8003C0.454503 15.29 0.207516 15.867 0.113141 16.4776C0.0187655 17.0883 0.0800546 17.7129 0.291329 18.2935C0.502604 18.8742 0.857029 19.3921 1.32176 19.7993C1.78649 20.2066 2.34649 20.4899 2.94987 20.6231C3.55324 20.7562 4.18047 20.7349 4.77343 20.5612C5.3664 20.3874 5.9059 20.0668 6.34196 19.629H6.33996Z" fill="#394149"/>
<path d="M42.592 9.152V26H38.488V9.152H42.592ZM64.6461 9.152V26H60.5421V15.896L56.7741 26H53.4621L49.6701 15.872V26H45.5661V9.152H50.4141L55.1421 20.816L59.8221 9.152H64.6461ZM80.4374 14.576C80.4374 15.552 80.2134 16.448 79.7654 17.264C79.3174 18.064 78.6294 18.712 77.7014 19.208C76.7734 19.704 75.6214 19.952 74.2454 19.952H71.7014V26H67.5974V9.152H74.2454C75.5894 9.152 76.7254 9.384 77.6534 9.848C78.5814 10.312 79.2774 10.952 79.7414 11.768C80.2054 12.584 80.4374 13.52 80.4374 14.576ZM73.9334 16.688C74.7174 16.688 75.3014 16.504 75.6854 16.136C76.0694 15.768 76.2614 15.248 76.2614 14.576C76.2614 13.904 76.0694 13.384 75.6854 13.016C75.3014 12.648 74.7174 12.464 73.9334 12.464H71.7014V16.688H73.9334ZM88.6699 26.168C87.4379 26.168 86.3339 25.968 85.3579 25.568C84.3819 25.168 83.5979 24.576 83.0059 23.792C82.4299 23.008 82.1259 22.064 82.0939 20.96H86.4619C86.5259 21.584 86.7419 22.064 87.1099 22.4C87.4779 22.72 87.9579 22.88 88.5499 22.88C89.1579 22.88 89.6379 22.744 89.9899 22.472C90.3419 22.184 90.5179 21.792 90.5179 21.296C90.5179 20.88 90.3739 20.536 90.0859 20.264C89.8139 19.992 89.4699 19.768 89.0539 19.592C88.6539 19.416 88.0779 19.216 87.3259 18.992C86.2379 18.656 85.3499 18.32 84.6619 17.984C83.9739 17.648 83.3819 17.152 82.8859 16.496C82.3899 15.84 82.1419 14.984 82.1419 13.928C82.1419 12.36 82.7099 11.136 83.8459 10.256C84.9819 9.36 86.4619 8.912 88.2859 8.912C90.1419 8.912 91.6379 9.36 92.7739 10.256C93.9099 11.136 94.5179 12.368 94.5979 13.952H90.1579C90.1259 13.408 89.9259 12.984 89.5579 12.68C89.1899 12.36 88.7179 12.2 88.1419 12.2C87.6459 12.2 87.2459 12.336 86.9419 12.608C86.6379 12.864 86.4859 13.24 86.4859 13.736C86.4859 14.28 86.7419 14.704 87.2539 15.008C87.7659 15.312 88.5659 15.64 89.6539 15.992C90.7419 16.36 91.6219 16.712 92.2939 17.048C92.9819 17.384 93.5739 17.872 94.0699 18.512C94.5659 19.152 94.8139 19.976 94.8139 20.984C94.8139 21.944 94.5659 22.816 94.0699 23.6C93.5899 24.384 92.8859 25.008 91.9579 25.472C91.0299 25.936 89.9339 26.168 88.6699 26.168Z" fill="url(#paint0_linear)"/>
<defs>
<linearGradient id="paint0_linear" x1="37" y1="0" x2="98.9389" y2="18.4577" gradientUnits="userSpaceOnUse">
<stop stop-color="#57FFF5"/>
<stop offset="1" stop-color="#0094FF"/>
</linearGradient>
</defs>
</svg>
