<svg width="57" height="19" viewBox="0 0 57 19" fill="none" xmlns="http://www.w3.org/2000/svg">
<path d="M4.592 1.152V18H0.488V1.152H4.592ZM26.6461 1.152V18H22.5421V7.896L18.7741 18H15.4621L11.6701 7.872V18H7.56613V1.152H12.4141L17.1421 12.816L21.8221 1.152H26.6461ZM42.4374 6.576C42.4374 7.552 42.2134 8.448 41.7654 9.264C41.3174 10.064 40.6294 10.712 39.7014 11.208C38.7734 11.704 37.6214 11.952 36.2454 11.952H33.7014V18H29.5974V1.152H36.2454C37.5894 1.152 38.7254 1.384 39.6534 1.848C40.5814 2.312 41.2774 2.952 41.7414 3.768C42.2054 4.584 42.4374 5.52 42.4374 6.576ZM35.9334 8.688C36.7174 8.688 37.3014 8.504 37.6854 8.136C38.0694 7.768 38.2614 7.248 38.2614 6.576C38.2614 5.904 38.0694 5.384 37.6854 5.016C37.3014 4.648 36.7174 4.464 35.9334 4.464H33.7014V8.688H35.9334ZM50.6699 18.168C49.4379 18.168 48.3339 17.968 47.3579 17.568C46.3819 17.168 45.5979 16.576 45.0059 15.792C44.4299 15.008 44.1259 14.064 44.0939 12.96H48.4619C48.5259 13.584 48.7419 14.064 49.1099 14.4C49.4779 14.72 49.9579 14.88 50.5499 14.88C51.1579 14.88 51.6379 14.744 51.9899 14.472C52.3419 14.184 52.5179 13.792 52.5179 13.296C52.5179 12.88 52.3739 12.536 52.0859 12.264C51.8139 11.992 51.4699 11.768 51.0539 11.592C50.6539 11.416 50.0779 11.216 49.3259 10.992C48.2379 10.656 47.3499 10.32 46.6619 9.984C45.9739 9.648 45.3819 9.152 44.8859 8.496C44.3899 7.84 44.1419 6.984 44.1419 5.928C44.1419 4.36 44.7099 3.136 45.8459 2.256C46.9819 1.36 48.4619 0.912 50.2859 0.912C52.1419 0.912 53.6379 1.36 54.7739 2.256C55.9099 3.136 56.5179 4.368 56.5979 5.952H52.1579C52.1259 5.408 51.9259 4.984 51.5579 4.68C51.1899 4.36 50.7179 4.2 50.1419 4.2C49.6459 4.2 49.2459 4.336 48.9419 4.608C48.6379 4.864 48.4859 5.24 48.4859 5.736C48.4859 6.28 48.7419 6.704 49.2539 7.008C49.7659 7.312 50.5659 7.64 51.6539 7.992C52.7419 8.36 53.6219 8.712 54.2939 9.048C54.9819 9.384 55.5739 9.872 56.0699 10.512C56.5659 11.152 56.8139 11.976 56.8139 12.984C56.8139 13.944 56.5659 14.816 56.0699 15.6C55.5899 16.384 54.8859 17.008 53.9579 17.472C53.0299 17.936 51.9339 18.168 50.6699 18.168Z" fill="url(#paint0_linear)"/>
<defs>
<linearGradient id="paint0_linear" x1="-1" y1="-8" x2="60.9389" y2="10.4577" gradientUnits="userSpaceOnUse">
<stop stop-color="#57FFF5"/>
<stop offset="1" stop-color="#0094FF"/>
</linearGradient>
</defs>
</svg>
